<svg width="22" height="22" viewBox="0 0 22 22" fill="none" xmlns="http://www.w3.org/2000/svg">
<path fill-rule="evenodd" clip-rule="evenodd" d="M18.6445 0.575715C19.4121 -0.191909 20.6566 -0.191909 21.4243 0.575714C22.1919 1.34334 22.1919 2.5879 21.4243 3.35552L13.7798 11L21.4243 18.6445C22.1919 19.4121 22.1919 20.6567 21.4243 21.4243C20.6567 22.1919 19.4121 22.1919 18.6445 21.4243L11 13.7798L3.35552 21.4243C2.5879 22.1919 1.34334 22.1919 0.575712 21.4243C-0.19191 20.6567 -0.191909 19.4121 0.575714 18.6445L8.22019 11L0.575727 3.35552C-0.191896 2.5879 -0.191897 1.34334 0.575726 0.575714C1.34335 -0.191909 2.58791 -0.191909 3.35553 0.575715L11 8.22018L18.6445 0.575715Z" fill="#F5FFFE"/>
</svg>
