<svg width="42" height="42" viewBox="0 0 42 42" fill="none" xmlns="http://www.w3.org/2000/svg">
<path d="M15.1548 17.9864C15.1548 19.9326 13.7442 21.2727 12.2844 21.2727C10.8245 21.2727 9.41394 19.9326 9.41394 17.9864C9.41394 16.0401 10.8245 14.7 12.2844 14.7C13.7442 14.7 15.1548 16.0401 15.1548 17.9864Z" stroke="#F5FFFE" stroke-width="3"/>
<path d="M18.0681 28.9617C18.0681 29.93 17.9206 30.3591 17.8197 30.532C17.7671 30.6224 17.7103 30.6935 17.4538 30.7577C17.1184 30.8417 16.6225 30.8615 15.8199 30.8328C15.6064 30.8252 15.3702 30.8141 15.1169 30.8021C14.502 30.7732 13.7863 30.7394 13.0508 30.7394C12.3555 30.7394 11.629 30.7698 10.9625 30.7977C10.6411 30.8111 10.3336 30.824 10.0503 30.8326C9.1168 30.8609 8.37594 30.8473 7.79224 30.7383C7.22086 30.6316 6.96181 30.4624 6.8263 30.3059C6.69686 30.1563 6.5 29.81 6.5 28.9617C6.5 25.3955 9.18193 22.6773 12.2841 22.6773C15.3862 22.6773 18.0681 25.3955 18.0681 28.9617Z" stroke="#F5FFFE" stroke-width="3"/>
<path d="M32.5841 17.9864C32.5841 19.9326 31.1736 21.2727 29.7137 21.2727C28.2538 21.2727 26.8433 19.9326 26.8433 17.9864C26.8433 16.0401 28.2538 14.7 29.7137 14.7C31.1736 14.7 32.5841 16.0401 32.5841 17.9864Z" stroke="#F5FFFE" stroke-width="3"/>
<path d="M35.5 28.9617C35.5 29.93 35.3525 30.3591 35.2516 30.532C35.1989 30.6224 35.1422 30.6935 34.8856 30.7577C34.5503 30.8417 34.0544 30.8615 33.2518 30.8328C33.0383 30.8252 32.8021 30.8141 32.5488 30.8021C31.9339 30.7732 31.2181 30.7394 30.4827 30.7394C29.7874 30.7394 29.0609 30.7698 28.3943 30.7977C28.073 30.8111 27.7655 30.824 27.4822 30.8326C26.5487 30.8609 25.8078 30.8473 25.2241 30.7383C24.6527 30.6316 24.3937 30.4624 24.2582 30.3059C24.1287 30.1563 23.9319 29.81 23.9319 28.9617C23.9319 25.3955 26.6138 22.6773 29.7159 22.6773C32.8181 22.6773 35.5 25.3955 35.5 28.9617Z" stroke="#F5FFFE" stroke-width="3"/>
<path d="M25.5185 14.5C25.5185 17.3927 23.4074 19.5 21.0834 19.5C18.7593 19.5 16.6482 17.3927 16.6482 14.5C16.6482 11.6073 18.7593 9.5 21.0834 9.5C23.4074 9.5 25.5185 11.6073 25.5185 14.5Z" fill="#01322C" stroke="#F5FFFE" stroke-width="3"/>
<path d="M29.4738 29.4049C29.4738 30.758 29.2704 31.4528 29.0634 31.8079C28.9045 32.0804 28.6911 32.2501 28.2329 32.3648C27.6959 32.4993 26.9533 32.5215 25.8644 32.4826C25.5638 32.4718 25.2364 32.4564 24.8883 32.44C24.0576 32.4008 23.1086 32.3561 22.1231 32.3561C21.1896 32.3561 20.2252 32.3965 19.3264 32.4341C18.8863 32.4525 18.4619 32.4703 18.0646 32.4823C16.7934 32.5209 15.7372 32.5049 14.8833 32.3454C14.0416 32.1882 13.5573 31.9205 13.2641 31.5818C12.9769 31.2501 12.6899 30.638 12.6899 29.4049C12.6899 24.2994 16.5395 20.3334 21.0819 20.3334C25.6243 20.3334 29.4738 24.2994 29.4738 29.4049Z" fill="#01322C" stroke="#F5FFFE" stroke-width="3"/>
</svg>
